#Comment line ignore any data following # character 
#Hierarchical Translation and Rotation (.htr) file 
[Header]	
#Header keywords are followed by a single value 
FileType HTR		#Single word string
DataType HTRS		#Translation followed by rotation and scale data
FileVersion 1		#integer
NumSegments 25		#integer
NumFrames 4		#integer
DataFrameRate 30		#integer, data frame rate in this file
EulerRotationOrder ZYX
CalibrationUnits mm
RotationUnits Degrees
GlobalAxisofGravity Y
BoneLengthAxis Y
ScaleFactor 1.00
[SegmentNames&Hierarchy]
#CHILD	PARENT
BN_Tick_Root GLOBAL
BN_Torso BN_Tick_Root
BN_L_Leg_Front01 BN_Torso
BN_L_Leg_Rear01 BN_Torso
BN_MetalTop BN_Torso
BN_Neck BN_Torso
BN_R_Leg_Front01 BN_Torso
BN_R_Leg_Rear01 BN_Torso
BN_Sack BN_Torso
BN_L_Leg_Front02 BN_L_Leg_Front01
BN_L_Leg_Front03 BN_L_Leg_Front02
BN_L_Leg_Rear02 BN_L_Leg_Rear01
BN_L_Leg_Rear03 BN_L_Leg_Rear02
BN_Head BN_Neck
BN_Needle BN_Head
BN_R_Leg_Front02 BN_R_Leg_Front01
BN_R_Leg_Front03 BN_R_Leg_Front02
BN_R_Leg_Rear02 BN_R_Leg_Rear01
BN_R_Leg_Rear03 BN_R_Leg_Rear02
BN_SackDef01 BN_Sack
BN_SackDef02 BN_Sack
BN_SackDef03 BN_Sack
BN_SackDef04 BN_Sack
BN_SackDef05 BN_Sack
BN_SackDef06 BN_Sack
[BasePosition]
#SegmentName Tx, Ty, Tz, Rx, Ry, Rz, BoneLength
BN_Tick_Root 0.000000 0.000000 0.000000 -90.000000 0.000000 0.000000 10.000000 
BN_Torso 0.000000 0.000000 0.000000 0.000000 0.000000 0.000000 10.000000 
BN_L_Leg_Front01 0.000000 0.000000 0.000000 0.000000 0.000000 0.000000 10.000000 
BN_L_Leg_Rear01 0.000000 0.000000 0.000000 0.000000 0.000000 0.000000 10.000000 
BN_MetalTop 0.000000 0.000000 0.000000 0.000000 0.000000 0.000000 10.000000 
BN_Neck 0.000000 0.000000 0.000000 0.000000 0.000000 0.000000 10.000000 
BN_R_Leg_Front01 0.000000 0.000000 0.000000 0.000000 0.000000 0.000000 10.000000 
BN_R_Leg_Rear01 0.000000 0.000000 0.000000 0.000000 0.000000 0.000000 10.000000 
BN_Sack 0.000000 0.000000 0.000000 0.000000 0.000000 0.000000 10.000000 
BN_L_Leg_Front02 0.000000 0.000000 0.000000 0.000000 0.000000 0.000000 10.000000 
BN_L_Leg_Front03 0.000000 0.000000 0.000000 0.000000 0.000000 0.000000 10.000000 
BN_L_Leg_Rear02 0.000000 0.000000 0.000000 0.000000 0.000000 0.000000 10.000000 
BN_L_Leg_Rear03 0.000000 0.000000 0.000000 0.000000 0.000000 0.000000 10.000000 
BN_Head 0.000000 0.000000 0.000000 0.000000 0.000000 0.000000 10.000000 
BN_Needle 0.000000 0.000000 0.000000 0.000000 0.000000 0.000000 10.000000 
BN_R_Leg_Front02 0.000000 0.000000 0.000000 0.000000 0.000000 0.000000 10.000000 
BN_R_Leg_Front03 0.000000 0.000000 0.000000 0.000000 0.000000 0.000000 10.000000 
BN_R_Leg_Rear02 0.000000 0.000000 0.000000 0.000000 0.000000 0.000000 10.000000 
BN_R_Leg_Rear03 0.000000 0.000000 0.000000 0.000000 0.000000 0.000000 10.000000 
BN_SackDef01 0.000000 0.000000 0.000000 0.000000 0.000000 0.000000 10.000000 
BN_SackDef02 0.000000 0.000000 0.000000 0.000000 0.000000 0.000000 10.000000 
BN_SackDef03 0.000000 0.000000 0.000000 0.000000 0.000000 0.000000 10.000000 
BN_SackDef04 0.000000 0.000000 0.000000 0.000000 0.000000 0.000000 10.000000 
BN_SackDef05 0.000000 0.000000 0.000000 0.000000 0.000000 0.000000 10.000000 
BN_SackDef06 0.000000 0.000000 0.000000 0.000000 0.000000 0.000000 10.000000 
#Beginning of Data. Separated by tabs
#Fr	Tx	Ty	Tz	Rx	Ry	Rz	SF
[BN_Tick_Root]
95 -1361.722900 857.800110 1121.303589 0.000000 -0.000000 107.561119 1961.487305
96 -1344.151855 887.772949 1131.284546 0.000000 -0.000000 107.467781 1968.423218
97 -1298.839111 918.919495 1138.683350 0.000000 -0.000000 107.102364 1956.526489
98 -1236.881470 949.471436 1144.373901 0.000000 -0.000000 106.736916 1934.157104
[BN_Torso]
95 -0.000157 0.000236 165.822418 0.070606 -14.948424 1.109737 165.822418
96 -2.506494 -0.164810 159.866837 2.357976 -17.951107 -0.651278 159.886566
97 2.714432 17.919481 161.147324 7.142679 -20.263100 -2.564877 162.163300
98 -0.899327 10.114292 191.326553 18.377516 -21.395840 -4.676275 191.595825
[BN_L_Leg_Front01]
95 -68.477791 10.734189 -26.804373 -74.285378 26.487545 110.319489 74.316254
96 -68.477791 10.734189 -26.804373 -74.314590 25.171532 111.961853 74.316254
97 -68.477791 10.734189 -26.804373 -75.202721 10.587067 116.542656 74.316254
98 -68.477791 10.734189 -26.804373 -76.201736 0.823368 115.433136 74.316254
[BN_L_Leg_Rear01]
95 -72.133743 -73.994843 -18.268616 89.956703 53.264618 -130.045334 104.939293
96 -72.133743 -73.994843 -18.268616 87.131203 52.796951 -130.724136 104.939293
97 -72.133743 -73.994843 -18.268616 80.520248 47.827477 -129.622192 104.939293
98 -72.133743 -73.994843 -18.268616 76.661781 47.565659 -128.869843 104.939293
[BN_MetalTop]
95 0.000008 13.737477 26.403606 89.999153 -46.165333 -89.997917 29.763546
96 0.000008 13.737477 26.403606 90.002144 -44.437252 -89.999603 29.763546
97 0.000008 13.737477 26.403606 89.998627 -39.880478 -89.997360 29.763546
98 0.000008 13.737477 26.403606 89.996643 -33.437973 -89.997948 29.763546
[BN_Neck]
95 0.000014 95.233284 10.002091 -89.998169 -39.037575 89.996895 95.757088
96 0.000014 95.233284 10.002091 -89.998169 -39.037575 89.996895 95.757088
97 0.000014 95.233284 10.002091 -89.998169 -39.037575 89.996895 95.757088
98 0.000014 95.233284 10.002091 -89.998169 -39.037575 89.996895 95.757088
[BN_R_Leg_Front01]
95 68.477768 10.734107 -26.804314 75.106621 10.285769 74.860565 74.316193
96 68.477768 10.734107 -26.804314 75.520264 12.415336 73.056686 74.316193
97 68.477768 10.734107 -26.804314 77.181320 4.662436 68.831406 74.316193
98 68.477768 10.734107 -26.804314 79.827560 1.771772 60.856407 74.316193
[BN_R_Leg_Rear01]
95 72.133751 -73.994873 -18.268644 -75.640907 60.276119 -75.441910 104.939331
96 72.133751 -73.994873 -18.268644 -75.392807 60.399780 -75.696663 104.939331
97 72.133751 -73.994873 -18.268644 -75.496216 56.944153 -76.681793 104.939331
98 72.133751 -73.994873 -18.268644 -74.446152 56.925079 -75.609871 104.939331
[BN_Sack]
95 -0.000000 -78.024918 33.657791 89.999695 -21.078943 -90.001091 84.974907
96 -0.000000 -78.024918 33.657791 89.995438 -17.732342 -89.998344 84.974907
97 -0.000000 -78.024918 33.657791 89.998177 -14.037986 -89.999626 84.974907
98 -0.000000 -78.024918 33.657791 89.999611 -10.203675 -89.999611 84.974907
[BN_L_Leg_Front02]
95 142.805023 -0.000015 -0.000104 -0.353836 0.940909 -134.407379 142.805023
96 142.805023 -0.000015 -0.000104 -0.856735 0.952752 -172.362366 142.805023
97 142.805023 -0.000015 -0.000104 -1.821836 1.773574 151.566269 142.805023
98 142.805023 -0.000015 -0.000104 -128.188736 1.549161 81.553848 142.805023
[BN_L_Leg_Front03]
95 124.143021 -0.000045 0.000007 0.353129 -0.122631 164.265900 124.143021
96 124.143021 -0.000045 0.000007 0.354216 -0.033697 175.956848 124.143021
97 124.143021 -0.000045 0.000007 0.352815 0.002270 -179.670288 124.143021
98 124.143021 -0.000045 0.000007 0.352815 0.002270 -179.670288 124.143021
[BN_L_Leg_Rear02]
95 139.939041 0.000075 -0.000022 0.003097 -0.242301 118.086906 139.939041
96 139.939041 0.000075 -0.000022 0.006230 -0.264320 117.462997 139.939041
97 139.939041 0.000075 -0.000022 0.005286 -0.242262 117.051750 139.939041
98 139.939041 0.000075 -0.000022 0.011704 -0.239583 115.999451 139.939041
[BN_L_Leg_Rear03]
95 142.839615 0.000179 -0.000060 0.000917 -0.002161 -135.994492 142.839615
96 142.839615 0.000179 -0.000060 0.000908 -0.002165 -135.497986 142.839615
97 142.839615 0.000179 -0.000060 0.000901 -0.002167 -135.166473 142.839615
98 142.839615 0.000179 -0.000060 0.000885 -0.002174 -134.303986 142.839615
[BN_Head]
95 57.062447 -0.000030 0.000000 0.001993 0.001239 26.260048 57.062447
96 57.062447 -0.000030 0.000000 0.001993 0.001239 26.260048 57.062447
97 57.062447 -0.000030 0.000000 0.001993 0.001239 26.260048 57.062447
98 57.062447 -0.000030 0.000000 0.001993 0.001239 26.260048 57.062447
[BN_Needle]
95 33.915195 69.677597 -0.000049 0.000003 0.000030 87.896805 77.493279
96 33.915195 69.677597 -0.000048 0.000003 0.000030 87.896805 77.493279
97 33.915195 69.677597 -0.000047 0.000003 0.000030 87.896805 77.493279
98 33.915195 69.677597 -0.000047 0.000003 0.000030 87.896805 77.493279
[BN_R_Leg_Front02]
95 142.804947 -0.000060 0.000060 -0.023962 0.958217 48.941536 142.804947
96 142.804947 -0.000060 0.000060 0.054715 0.845418 67.419067 142.804947
97 142.804947 -0.000060 0.000060 0.520927 0.927033 120.621910 142.804947
98 142.804947 -0.000060 0.000060 0.844691 1.063981 161.381271 142.804947
[BN_R_Leg_Front03]
95 124.143005 -0.000060 -0.000156 -0.355215 -0.327896 -133.302414 124.143005
96 124.143005 -0.000060 -0.000156 -0.352795 -0.273292 -142.317108 124.143005
97 124.143005 -0.000060 -0.000156 -0.352331 -0.075511 -170.137634 124.143005
98 124.143005 -0.000060 -0.000156 -0.354440 0.002268 179.672211 124.143005
[BN_R_Leg_Rear02]
95 139.939011 -0.000149 0.000015 0.000176 -0.266065 -118.999794 139.939011
96 139.939011 -0.000149 0.000015 -0.003860 -0.264796 -118.175453 139.939011
97 139.939011 -0.000149 0.000015 -0.007877 -0.263469 -117.351013 139.939011
98 139.939011 -0.000149 0.000015 -0.024065 -0.260067 -112.088470 139.939011
[BN_R_Leg_Rear03]
95 142.839417 0.000075 0.000119 0.002155 -0.000931 136.715439 142.839417
96 142.839417 0.000075 0.000119 0.002160 -0.000918 136.062164 142.839417
97 142.839417 0.000075 0.000119 0.002165 -0.000906 135.408783 142.839417
98 142.839417 0.000075 0.000119 0.002199 -0.000821 130.968170 142.839417
[BN_SackDef01]
95 249.782272 -3.760844 42.949425 -128.408218 -44.374973 -11.740845 253.475800
96 249.782272 -3.760844 42.949425 -128.408218 -44.374973 -11.740845 253.475800
97 249.782272 -3.760844 42.949425 -128.408218 -44.374973 -11.740845 253.475800
98 249.782272 -3.760844 42.949425 -128.408218 -44.374973 -11.740845 253.475800
[BN_SackDef02]
95 138.789795 -62.131748 45.674385 32.077126 -27.375721 -88.781525 158.773758
96 138.789795 -62.131748 45.674385 32.077126 -27.375721 -88.781525 158.773758
97 138.789795 -62.131748 45.674385 32.077126 -27.375721 -88.781525 158.773758
98 138.789795 -62.131748 45.674385 32.077126 -27.375721 -88.781525 158.773758
[BN_SackDef03]
95 249.782272 -3.760785 -42.949661 18.144459 44.375008 -11.740894 253.475845
96 249.782272 -3.760785 -42.949661 18.144459 44.375008 -11.740894 253.475845
97 249.782272 -3.760785 -42.949661 18.144459 44.375008 -11.740894 253.475845
98 249.782272 -3.760785 -42.949661 18.144459 44.375008 -11.740894 253.475845
[BN_SackDef04]
95 138.789780 -62.131645 -45.674473 146.059982 27.375723 -88.781555 158.773743
96 138.789780 -62.131645 -45.674473 146.059982 27.375723 -88.781555 158.773743
97 138.789780 -62.131645 -45.674473 146.059982 27.375723 -88.781555 158.773743
98 138.789780 -62.131645 -45.674473 146.059982 27.375723 -88.781555 158.773743
[BN_SackDef05]
95 118.790161 46.167137 -63.831196 0.155741 51.314110 90.605110 142.537460
96 118.790161 46.167137 -63.831196 0.155741 51.314110 90.605110 142.537460
97 118.790161 46.167137 -63.831196 0.155741 51.314110 90.605110 142.537460
98 118.790161 46.167137 -63.831196 0.155741 51.314110 90.605110 142.537460
[BN_SackDef06]
95 118.790207 46.167194 63.831219 152.058487 -51.314072 90.605019 142.537537
96 118.790207 46.167194 63.831219 152.058487 -51.314072 90.605019 142.537537
97 118.790207 46.167194 63.831219 152.058487 -51.314072 90.605019 142.537537
98 118.790207 46.167194 63.831219 152.058487 -51.314072 90.605019 142.537537
